<?xml version="1.0" encoding="UTF-8" standalone="no"?>
<!-- Generator: Adobe Illustrator 16.0.0, SVG Export Plug-In . SVG Version: 6.00 Build 0)  -->

<svg
   xmlns:dc="http://purl.org/dc/elements/1.1/"
   xmlns:cc="http://creativecommons.org/ns#"
   xmlns:rdf="http://www.w3.org/1999/02/22-rdf-syntax-ns#"
   xmlns:svg="http://www.w3.org/2000/svg"
   xmlns="http://www.w3.org/2000/svg"
   xmlns:sodipodi="http://sodipodi.sourceforge.net/DTD/sodipodi-0.dtd"
   xmlns:inkscape="http://www.inkscape.org/namespaces/inkscape"
   version="1.1"
   id="Layer_1"
   x="0px"
   y="0px"
   width="200"
   height="60"
   viewBox="0 0 400 120"
   enable-background="new 0 0 1000 291.379"
   xml:space="preserve"
   sodipodi:docname="logo.svg"
   inkscape:version="0.92.5 (2060ec1f9f, 2020-04-08)"
   inkscape:export-filename="/home/jonas/projects/tiktak-flask/tiktak-flask/static/logo.png"
   inkscape:export-xdpi="23.040001"
   inkscape:export-ydpi="23.040001"><metadata
   id="metadata836"><rdf:RDF><cc:Work
       rdf:about=""><dc:format>image/svg+xml</dc:format><dc:type
         rdf:resource="http://purl.org/dc/dcmitype/StillImage" /><dc:title></dc:title></cc:Work></rdf:RDF></metadata><defs
   id="defs834">
	
	
	
	
	
	
	
</defs><sodipodi:namedview
   pagecolor="#ffffff"
   bordercolor="#666666"
   borderopacity="1"
   objecttolerance="10"
   gridtolerance="10"
   guidetolerance="10"
   inkscape:pageopacity="0"
   inkscape:pageshadow="2"
   inkscape:window-width="1600"
   inkscape:window-height="836"
   id="namedview832"
   showgrid="false"
   inkscape:zoom="20.794596"
   inkscape:cx="153.26561"
   inkscape:cy="25.381473"
   inkscape:window-x="0"
   inkscape:window-y="27"
   inkscape:window-maximized="1"
   inkscape:current-layer="g879"
   fit-margin-top="0"
   fit-margin-left="0"
   fit-margin-right="0"
   fit-margin-bottom="0" />
<path
   style="fill:#00f2ea;fill-opacity:1;stroke-width:0.39999998"
   inkscape:connector-curvature="0"
   id="path815"
   d="M 26.702,45.520811 C 19.1764,50.897601 9.9572002,54.061201 0,54.061201 V 34.910406 c 1.8843999,4e-4 3.764,-0.196 5.6075999,-0.5864 v 15.074395 c 9.9564001,0 19.1744001,-3.1636 26.7019991,-8.54 v 39.0812 c 0,19.5504 15.8568,35.397999 35.415996,35.397999 7.298006,0 14.081204,-2.2052 19.716004,-5.98719 C 81.0104,115.92281 72.041597,120 62.119199,120 42.5588,120 26.7012,104.1524 26.7012,84.601211 v -39.0804 z M 19.784399,26.200006 c 3.846001,-4.1996 6.371201,-9.6268 6.917601,-15.6268 V 8.1100056 h 5.313999 c -1.337599,7.6260004 -5.9,14.1412004 -12.2316,18.0900004 z m 55.286,68.147995 c 2.148806,-2.81599 3.309996,-6.26079 3.304802,-9.8028 0,-8.9416 -7.2528,-16.1916 -16.200802,-16.1916 -1.6676,-4e-4 -3.3252,0.25481 -4.9144,0.7588 v -19.5788 c 1.8572,-0.2544 3.7316,-0.3624 5.6052,-0.3228 v 15.2392 c 1.590405,-0.504 3.248806,-0.76 4.916796,-0.7584 8.948001,0 16.200405,7.2492 16.200405,16.19201 0,6.32319 -3.625201,11.7976 -8.912001,14.46439 z" /><path
   inkscape:connector-curvature="0"
   id="path817"
   d="m 32.309599,40.858001 c -7.527599,5.3764 -16.745599,8.54 -26.7019991,8.54 V 34.323606 c 5.5576001,-1.1832 10.4776001,-4.086 14.1767991,-8.1236 6.332,-3.9492 10.894001,-10.4644 12.2316,-18.0900004 h 13.9584 V 84.600411 c 0.0316,8.91719 7.272,16.137589 16.200799,16.137589 5.261604,0 9.936001,-2.506799 12.896397,-6.389999 5.286404,-2.66679 8.911605,-8.14159 8.911605,-14.464 0,-8.942 -7.252404,-16.192 -16.200399,-16.192 -1.714398,0 -3.366799,0.2668 -4.916802,0.7584 v -15.2392 c 19.215603,0.3968 34.669594,16.0896 34.669594,35.3896 0,9.6344 -3.848389,18.368399 -10.09439,24.749999 -5.634807,3.7816 -12.417999,5.9872 -19.716005,5.9872 C 48.165599,115.338 32.3092,99.489611 32.3092,79.939601 v -39.0816 z"
   style="stroke-width:0.39999998" /><path
   style="fill:#ff004f;fill-opacity:1;stroke-width:0.39999998"
   inkscape:connector-curvature="0"
   id="path819"
   d="m 5.6075999,34.323606 v -4.076 c 5.0116001,0.0076 9.9248001,-1.3952 14.1767991,-4.048 -3.764,4.1188 -8.720399,6.9588 -14.1767991,8.124 z M 32.015999,8.1100056 c 0.1276,-0.7288 0.225601,-1.4624 0.2936,-2.1988 v -2.4632 h 19.2728 V 79.939211 c 0.0308,8.91599 7.270799,16.1364 16.200402,16.1364 2.621593,0 5.096798,-0.62201 7.288794,-1.72721 -2.960396,3.8828 -7.634793,6.389209 -12.896397,6.389209 -8.927999,0 -16.169599,-7.219609 -16.200799,-16.136809 V 8.1100056 Z m 30.8492,41.1011954 v -4.3392 c 1.610401,-0.22 3.234004,-0.3304 4.859603,-0.3296 19.561197,-4e-4 35.417998,15.848 35.417998,35.39681 0,12.25599 -6.232,23.057189 -15.702007,29.410789 6.246002,-6.3812 10.094403,-15.115589 10.094403,-24.749589 0,-19.29961 -15.453594,-34.99241 -34.669997,-35.38921 z" /><path
   inkscape:connector-curvature="0"
   id="path825"
   d="m 124.0248,37.676805 v 12.741196 h 14.9244 v 48.54961 h 14.9304 v -48.20561 h 12.1488 l 4.16559,-13.084796 H 124.0248 Z m 122.19279,0 v 12.741196 h 14.9244 v 48.54961 h 14.93041 v -48.20561 h 12.14839 L 292.386,37.677205 h -46.16841 z m -73.244,7.230396 c 0,-3.9924 3.25841,-7.230396 7.28401,-7.230396 4.0292,0 7.2912,3.237996 7.2912,7.230396 0,3.9928 -3.26,7.2308 -7.2912,7.2308 -4.0256,-0.002 -7.28401,-3.238 -7.28401,-7.2308 z m 0,12.3972 h 14.57521 v 41.66321 H 172.97359 Z M 193.7984,37.676805 v 61.290396 h 14.5808 v -15.83759 l 4.5132,-4.1356 14.2308,20.31719 h 15.62 l -20.4828,-29.61199 18.3988,-17.90721 H 222.956 l -14.5768,14.4612 V 37.676805 Z m 157.25079,0 v 61.290396 h 14.5828 v -15.83759 l 4.5112,-4.1356 14.2348,20.31719 h 15.622 l -20.4828,-29.61199 18.398,-17.90721 h -17.7024 l -14.5808,14.4612 V 37.676805 Z"
   style="stroke-width:0.39999998" />
<g
   id="g879"
   transform="matrix(0.39999999,0,0,0.39999999,-22.46564,-95.212712)"><path
     d="m 845.25134,360.6258 h -9.544 c -34.988,0 -63.358,28.14 -63.358,62.844 0,34.704 28.37,62.84 63.358,62.84 h 9.544 c -34.993,0 -60.06694,-27.84408 -60.06694,-62.54808 -10e-4,-34.703 25.07394,-63.13592 60.06694,-63.13592 z"
     id="path823"
     inkscape:connector-curvature="0"
     style="fill:#00f2ea"
     sodipodi:nodetypes="csssccc" /><path
     sodipodi:nodetypes="ccccc"
     inkscape:connector-curvature="0"
     id="rect866"
     d="m 906.77655,361.09059 18.9524,1.40496 -1.92336,120.90212 -17.62276,1.96403 z"
     style="opacity:1;fill:#ff004f;fill-opacity:1;stroke:#ff004f;stroke-width:0.11581405;stroke-miterlimit:4;stroke-dasharray:none;stroke-opacity:1" /><g
     id="text844"
     style="font-style:normal;font-variant:normal;font-weight:normal;font-stretch:normal;font-size:195.9438324px;line-height:1.25;font-family:'Futura Maxi CG Bold';-inkscape-font-specification:'Futura Maxi CG Bold, ';letter-spacing:0px;word-spacing:0px;fill:#000000;fill-opacity:1;stroke:none;stroke-width:4.89859629"
     aria-label="a"
     transform="translate(-2.1640238)"><path
       sodipodi:nodetypes="ssccccccsssssss"
       inkscape:connector-curvature="0"
       id="path863"
       style="stroke-width:4.89859629"
       d="m 787.34845,423.76172 c 0,38.60093 22.92543,62.50608 56.43183,62.50608 22.92542,0 36.05366,-14.69579 36.05366,-14.69579 v 11.75663 l 36.6415,-3.80849 V 366.01151 l -36.05367,-2.99238 v 12.34446 C 869.64486,365.5664 860.4355,360.6678 845.73971,360.6678 c -33.50639,0 -58.39126,29.58752 -58.39126,63.09392 z m 65.64119,-29.39158 c 16.06739,0 28.60779,12.14852 28.60779,29.78347 0,17.439 -13.52012,29.39157 -29.78346,29.39157 -16.85117,0 -27.43213,-13.71607 -27.43213,-30.37129 0,-15.87145 11.16879,-28.80375 28.6078,-28.80375 z" /></g></g></svg>